<?xml version="1.0" encoding="UTF-8" standalone="no"?>
<!DOCTYPE svg PUBLIC "-//W3C//DTD SVG 1.1//EN"
 "http://www.w3.org/Graphics/SVG/1.1/DTD/svg11.dtd">
<!-- Generated by graphviz version 2.44.1 (20200629.0846)
 -->
<!-- Pages: 1 -->
<svg width="804pt" height="779pt"
 viewBox="0.00 0.00 804.00 778.74" xmlns="http://www.w3.org/2000/svg" xmlns:xlink="http://www.w3.org/1999/xlink">
<g id="graph0" class="graph" transform="scale(1 1) rotate(0) translate(4 774.74)">
<polygon fill="white" stroke="transparent" points="-4,4 -4,-774.74 800,-774.74 800,4 -4,4"/>
<g id="clust2" class="cluster">
<title>cluster_openworld</title>
<polygon fill="none" stroke="black" points="590,-8 590,-471.74 788,-471.74 788,-8 590,-8"/>
<text text-anchor="middle" x="689" y="-456.54" font-family="Times New Roman,serif" font-size="14.00">Open&#45;world 3D</text>
</g>
<g id="clust3" class="cluster">
<title>cluster_lin3d</title>
<polygon fill="none" stroke="black" points="376,-80 376,-227 582,-227 582,-80 376,-80"/>
<text text-anchor="middle" x="479" y="-211.8" font-family="Times New Roman,serif" font-size="14.00">Linear 3D</text>
</g>
<g id="clust1" class="cluster">
<title>cluster_2d</title>
<polygon fill="none" stroke="black" points="8,-235 8,-762.74 569,-762.74 569,-235 8,-235"/>
<text text-anchor="middle" x="288.5" y="-747.54" font-family="Times New Roman,serif" font-size="14.00">2D</text>
</g>
<!-- smb -->
<g id="node1" class="node">
<title>smb</title>
<ellipse fill="none" stroke="black" cx="399" cy="-713.74" rx="78.79" ry="18"/>
<text text-anchor="middle" x="399" y="-710.04" font-family="Times New Roman,serif" font-size="14.00">Super Mario Bros.</text>
</g>
<!-- smb2usa -->
<g id="node2" class="node">
<title>smb2usa</title>
<ellipse fill="none" stroke="black" cx="128" cy="-641.74" rx="111.58" ry="18"/>
<text text-anchor="middle" x="128" y="-638.04" font-family="Times New Roman,serif" font-size="14.00">Super Mario Bros. 2 (USA)</text>
</g>
<!-- smb&#45;&gt;smb2usa -->
<g id="edge3" class="edge">
<title>smb&#45;&gt;smb2usa</title>
<path fill="none" stroke="black" d="M348.98,-699.82C305.57,-688.61 242.39,-672.29 194.69,-659.97"/>
<polygon fill="black" stroke="black" points="195.32,-656.51 184.76,-657.4 193.57,-663.29 195.32,-656.51"/>
</g>
<!-- smb2 -->
<g id="node3" class="node">
<title>smb2</title>
<ellipse fill="none" stroke="black" cx="399" cy="-641.74" rx="141.88" ry="18"/>
<text text-anchor="middle" x="399" y="-638.04" font-family="Times New Roman,serif" font-size="14.00">Super Mario Bros.: The Lost Levels</text>
</g>
<!-- smb&#45;&gt;smb2 -->
<g id="edge1" class="edge">
<title>smb&#45;&gt;smb2</title>
<path fill="none" stroke="black" d="M399,-695.44C399,-687.72 399,-678.45 399,-669.85"/>
<polygon fill="black" stroke="black" points="402.5,-669.84 399,-659.84 395.5,-669.84 402.5,-669.84"/>
</g>
<!-- sml -->
<g id="node6" class="node">
<title>sml</title>
<ellipse fill="none" stroke="black" cx="484" cy="-569.74" rx="77.19" ry="18"/>
<text text-anchor="middle" x="484" y="-566.04" font-family="Times New Roman,serif" font-size="14.00">Super Mario Land</text>
</g>
<!-- smb&#45;&gt;sml -->
<g id="edge2" class="edge">
<title>smb&#45;&gt;sml</title>
<path fill="none" stroke="black" d="M469.93,-705.76C499.74,-698.92 531.68,-685.58 550,-659.74 559.25,-646.69 556.92,-638.17 550,-623.74 543.97,-611.17 533.36,-600.65 522.38,-592.37"/>
<polygon fill="black" stroke="black" points="524.18,-589.36 513.98,-586.48 520.16,-595.09 524.18,-589.36"/>
</g>
<!-- smb3 -->
<g id="node4" class="node">
<title>smb3</title>
<ellipse fill="none" stroke="black" cx="304" cy="-569.74" rx="85.29" ry="18"/>
<text text-anchor="middle" x="304" y="-566.04" font-family="Times New Roman,serif" font-size="14.00">Super Mario Bros. 3</text>
</g>
<!-- smb2&#45;&gt;smb3 -->
<g id="edge4" class="edge">
<title>smb2&#45;&gt;smb3</title>
<path fill="none" stroke="black" d="M376,-623.8C363.54,-614.61 347.99,-603.15 334.52,-593.23"/>
<polygon fill="black" stroke="black" points="336.58,-590.4 326.46,-587.29 332.43,-596.04 336.58,-590.4"/>
</g>
<!-- smw -->
<g id="node5" class="node">
<title>smw</title>
<ellipse fill="none" stroke="black" cx="326" cy="-497.74" rx="81.79" ry="18"/>
<text text-anchor="middle" x="326" y="-494.04" font-family="Times New Roman,serif" font-size="14.00">Super Mario World</text>
</g>
<!-- smb3&#45;&gt;smw -->
<g id="edge5" class="edge">
<title>smb3&#45;&gt;smw</title>
<path fill="none" stroke="black" d="M309.44,-551.44C311.89,-543.64 314.84,-534.25 317.57,-525.57"/>
<polygon fill="black" stroke="black" points="320.96,-526.43 320.62,-515.84 314.29,-524.33 320.96,-526.43"/>
</g>
<!-- sml2 -->
<g id="node7" class="node">
<title>sml2</title>
<ellipse fill="none" stroke="black" cx="415" cy="-422.74" rx="145.67" ry="18"/>
<text text-anchor="middle" x="415" y="-419.04" font-family="Times New Roman,serif" font-size="14.00">Super Mario Land 2: 6 Golden Coins</text>
</g>
<!-- smw&#45;&gt;sml2 -->
<g id="edge7" class="edge">
<title>smw&#45;&gt;sml2</title>
<path fill="none" stroke="black" d="M346.2,-480.18C358.09,-470.42 373.32,-457.93 386.43,-447.18"/>
<polygon fill="black" stroke="black" points="388.75,-449.79 394.27,-440.75 384.32,-444.38 388.75,-449.79"/>
</g>
<!-- nsmb -->
<g id="node8" class="node">
<title>nsmb</title>
<ellipse fill="none" stroke="black" cx="154" cy="-422.74" rx="97.48" ry="18"/>
<text text-anchor="middle" x="154" y="-419.04" font-family="Times New Roman,serif" font-size="14.00">New Super Mario Bros.</text>
</g>
<!-- smw&#45;&gt;nsmb -->
<g id="edge14" class="edge">
<title>smw&#45;&gt;nsmb</title>
<path fill="none" stroke="black" d="M285.7,-481.94C277.18,-478.68 268.26,-475.17 260,-471.74 239,-463.02 215.97,-452.68 196.76,-443.84"/>
<polygon fill="black" stroke="black" points="198.2,-440.66 187.66,-439.64 195.26,-447.01 198.2,-440.66"/>
</g>
<!-- sm64 -->
<g id="node12" class="node">
<title>sm64</title>
<ellipse fill="none" stroke="black" cx="677" cy="-422.74" rx="67.69" ry="18"/>
<text text-anchor="middle" x="677" y="-419.04" font-family="Times New Roman,serif" font-size="14.00">Super Mario 64</text>
</g>
<!-- smw&#45;&gt;sm64 -->
<g id="edge8" class="edge">
<title>smw&#45;&gt;sm64</title>
<path fill="none" stroke="black" d="M407.32,-495.26C456.1,-492.72 518.95,-486.5 573,-471.74 596.41,-465.35 621.13,-454.14 640.6,-444.16"/>
<polygon fill="black" stroke="black" points="642.47,-447.13 649.7,-439.39 639.22,-440.93 642.47,-447.13"/>
</g>
<!-- sml&#45;&gt;sml2 -->
<g id="edge6" class="edge">
<title>sml&#45;&gt;sml2</title>
<path fill="none" stroke="black" d="M475.95,-551.82C464.07,-526.85 441.73,-479.91 427.64,-450.31"/>
<polygon fill="black" stroke="black" points="430.67,-448.52 423.21,-441 424.35,-451.53 430.67,-448.52"/>
</g>
<!-- nsmbwii -->
<g id="node9" class="node">
<title>nsmbwii</title>
<ellipse fill="none" stroke="black" cx="128" cy="-350.74" rx="112.38" ry="18"/>
<text text-anchor="middle" x="128" y="-347.04" font-family="Times New Roman,serif" font-size="14.00">New Super Mario Bros. Wii</text>
</g>
<!-- nsmb&#45;&gt;nsmbwii -->
<g id="edge15" class="edge">
<title>nsmb&#45;&gt;nsmbwii</title>
<path fill="none" stroke="black" d="M147.57,-404.44C144.64,-396.55 141.11,-387.04 137.86,-378.29"/>
<polygon fill="black" stroke="black" points="141.12,-377 134.35,-368.84 134.55,-379.44 141.12,-377"/>
</g>
<!-- nsmb2 -->
<g id="node10" class="node">
<title>nsmb2</title>
<ellipse fill="none" stroke="black" cx="363" cy="-350.74" rx="104.78" ry="18"/>
<text text-anchor="middle" x="363" y="-347.04" font-family="Times New Roman,serif" font-size="14.00">New Super Mario Bros. 2</text>
</g>
<!-- nsmb&#45;&gt;nsmb2 -->
<g id="edge16" class="edge">
<title>nsmb&#45;&gt;nsmb2</title>
<path fill="none" stroke="black" d="M198.84,-406.72C230.71,-396.05 273.73,-381.64 307.73,-370.25"/>
<polygon fill="black" stroke="black" points="309.15,-373.47 317.52,-366.97 306.92,-366.83 309.15,-373.47"/>
</g>
<!-- sm3dl -->
<g id="node18" class="node">
<title>sm3dl</title>
<ellipse fill="none" stroke="black" cx="484" cy="-178" rx="90.18" ry="18"/>
<text text-anchor="middle" x="484" y="-174.3" font-family="Times New Roman,serif" font-size="14.00">Super Mario 3D Land</text>
</g>
<!-- nsmb&#45;&gt;sm3dl -->
<g id="edge19" class="edge">
<title>nsmb&#45;&gt;sm3dl</title>
<path fill="none" stroke="black" d="M224.99,-410.37C319.77,-395.16 475.95,-369.93 477,-368.74 516.8,-323.59 503.39,-246.31 492.42,-205.71"/>
<polygon fill="black" stroke="black" points="495.75,-204.65 489.65,-195.99 489.02,-206.56 495.75,-204.65"/>
</g>
<!-- nsmbu -->
<g id="node11" class="node">
<title>nsmbu</title>
<ellipse fill="none" stroke="black" cx="132" cy="-269.87" rx="115.93" ry="26.74"/>
<text text-anchor="middle" x="132" y="-273.67" font-family="Times New Roman,serif" font-size="14.00">New Super Mario Bros. U</text>
<text text-anchor="middle" x="132" y="-258.67" font-family="Times New Roman,serif" font-size="14.00">+ New Super Luigi U</text>
</g>
<!-- nsmbwii&#45;&gt;nsmbu -->
<g id="edge17" class="edge">
<title>nsmbwii&#45;&gt;nsmbu</title>
<path fill="none" stroke="black" d="M128.87,-332.63C129.25,-325.14 129.71,-316.05 130.16,-307.17"/>
<polygon fill="black" stroke="black" points="133.67,-307.12 130.68,-296.95 126.68,-306.76 133.67,-307.12"/>
</g>
<!-- sunshine -->
<g id="node13" class="node">
<title>sunshine</title>
<ellipse fill="none" stroke="black" cx="689" cy="-350.74" rx="90.98" ry="18"/>
<text text-anchor="middle" x="689" y="-347.04" font-family="Times New Roman,serif" font-size="14.00">Super Mario Sunshine</text>
</g>
<!-- sm64&#45;&gt;sunshine -->
<g id="edge9" class="edge">
<title>sm64&#45;&gt;sunshine</title>
<path fill="none" stroke="black" d="M679.97,-404.44C681.29,-396.72 682.88,-387.45 684.35,-378.85"/>
<polygon fill="black" stroke="black" points="687.83,-379.29 686.07,-368.84 680.93,-378.11 687.83,-379.29"/>
</g>
<!-- galaxy -->
<g id="node14" class="node">
<title>galaxy</title>
<ellipse fill="none" stroke="black" cx="689" cy="-269.87" rx="83.69" ry="18"/>
<text text-anchor="middle" x="689" y="-266.17" font-family="Times New Roman,serif" font-size="14.00">Super Mario Galaxy</text>
</g>
<!-- sunshine&#45;&gt;galaxy -->
<g id="edge10" class="edge">
<title>sunshine&#45;&gt;galaxy</title>
<path fill="none" stroke="black" d="M689,-332.63C689,-322.6 689,-309.71 689,-298.29"/>
<polygon fill="black" stroke="black" points="692.5,-297.95 689,-287.95 685.5,-297.95 692.5,-297.95"/>
</g>
<!-- galaxy2 -->
<g id="node15" class="node">
<title>galaxy2</title>
<ellipse fill="none" stroke="black" cx="689" cy="-178" rx="90.98" ry="18"/>
<text text-anchor="middle" x="689" y="-174.3" font-family="Times New Roman,serif" font-size="14.00">Super Mario Galaxy 2</text>
</g>
<!-- galaxy&#45;&gt;galaxy2 -->
<g id="edge11" class="edge">
<title>galaxy&#45;&gt;galaxy2</title>
<path fill="none" stroke="black" d="M689,-251.54C689,-238.74 689,-221.05 689,-206.34"/>
<polygon fill="black" stroke="black" points="692.5,-206.27 689,-196.27 685.5,-206.27 692.5,-206.27"/>
</g>
<!-- galaxy&#45;&gt;sm3dl -->
<g id="edge18" class="edge">
<title>galaxy&#45;&gt;sm3dl</title>
<path fill="none" stroke="black" d="M650.64,-253.85C631.17,-246.08 607.22,-236.3 586,-227 566.16,-218.3 544.4,-208.15 526.1,-199.43"/>
<polygon fill="black" stroke="black" points="527.4,-196.18 516.87,-195.02 524.38,-202.49 527.4,-196.18"/>
</g>
<!-- odd -->
<g id="node16" class="node">
<title>odd</title>
<ellipse fill="none" stroke="black" cx="689" cy="-106" rx="90.98" ry="18"/>
<text text-anchor="middle" x="689" y="-102.3" font-family="Times New Roman,serif" font-size="14.00">Super Mario Odyssey</text>
</g>
<!-- galaxy2&#45;&gt;odd -->
<g id="edge12" class="edge">
<title>galaxy2&#45;&gt;odd</title>
<path fill="none" stroke="black" d="M689,-159.7C689,-151.98 689,-142.71 689,-134.11"/>
<polygon fill="black" stroke="black" points="692.5,-134.1 689,-124.1 685.5,-134.1 692.5,-134.1"/>
</g>
<!-- fury -->
<g id="node17" class="node">
<title>fury</title>
<ellipse fill="none" stroke="black" cx="675" cy="-34" rx="63.89" ry="18"/>
<text text-anchor="middle" x="675" y="-30.3" font-family="Times New Roman,serif" font-size="14.00">Bowser&#39;s Fury</text>
</g>
<!-- odd&#45;&gt;fury -->
<g id="edge13" class="edge">
<title>odd&#45;&gt;fury</title>
<path fill="none" stroke="black" d="M685.54,-87.7C684,-79.98 682.14,-70.71 680.42,-62.11"/>
<polygon fill="black" stroke="black" points="683.81,-61.22 678.42,-52.1 676.95,-62.6 683.81,-61.22"/>
</g>
<!-- sm3dw -->
<g id="node19" class="node">
<title>sm3dw</title>
<ellipse fill="none" stroke="black" cx="479" cy="-106" rx="94.78" ry="18"/>
<text text-anchor="middle" x="479" y="-102.3" font-family="Times New Roman,serif" font-size="14.00">Super Mario 3D World</text>
</g>
<!-- sm3dl&#45;&gt;sm3dw -->
<g id="edge20" class="edge">
<title>sm3dl&#45;&gt;sm3dw</title>
<path fill="none" stroke="black" d="M482.76,-159.7C482.21,-151.98 481.55,-142.71 480.94,-134.11"/>
<polygon fill="black" stroke="black" points="484.43,-133.83 480.22,-124.1 477.44,-134.33 484.43,-133.83"/>
</g>
<!-- sm3dw&#45;&gt;fury -->
<g id="edge21" class="edge">
<title>sm3dw&#45;&gt;fury</title>
<path fill="none" stroke="black" d="M521.53,-89.81C552.75,-78.66 595.17,-63.51 627.5,-51.96"/>
<polygon fill="black" stroke="black" points="628.95,-55.16 637.19,-48.5 626.6,-48.57 628.95,-55.16"/>
</g>
</g>
</svg>
