<?xml version="1.0" encoding="UTF-8" standalone="no"?>
<!DOCTYPE svg PUBLIC "-//W3C//DTD SVG 1.1//EN"
 "http://www.w3.org/Graphics/SVG/1.1/DTD/svg11.dtd">
<!-- Generated by graphviz version 2.28.0 (20110507.0327)
 -->
<!-- Title: _anonymous_0 Pages: 1 -->
<svg width="1349pt" height="624pt"
 viewBox="0.00 0.00 1349.00 624.00" xmlns="http://www.w3.org/2000/svg" xmlns:xlink="http://www.w3.org/1999/xlink">
<g id="graph1" class="graph" transform="scale(1 1) rotate(0) translate(4 620)">
<title>_anonymous_0</title>
<polygon fill="white" stroke="white" points="-4,5 -4,-620 1346,-620 1346,5 -4,5"/>
<g id="graph2" class="cluster"><title>cluster_2d</title>
<polygon fill="none" stroke="black" points="772,-8 772,-608 1333,-608 1333,-8 772,-8"/>
<text text-anchor="middle" x="1052.5" y="-592.8" font-family="Times New Roman,serif" font-size="14.00">2D</text>
</g>
<g id="graph3" class="cluster"><title>cluster_openworld</title>
<polygon fill="none" stroke="black" points="412,-8 412,-164 764,-164 764,-8 412,-8"/>
<text text-anchor="middle" x="588" y="-148.8" font-family="Times New Roman,serif" font-size="14.00">Open&#45;world 3D</text>
</g>
<g id="graph4" class="cluster"><title>cluster_lin3d</title>
<polygon fill="none" stroke="black" points="8,-89 8,-317 404,-317 404,-89 8,-89"/>
<text text-anchor="middle" x="206" y="-301.8" font-family="Times New Roman,serif" font-size="14.00">Linear 3D</text>
</g>
<!-- smb -->
<g id="node2" class="node"><title>smb</title>
<ellipse fill="none" stroke="black" cx="1163" cy="-559" rx="78.4642" ry="18"/>
<text text-anchor="middle" x="1163" y="-555.3" font-family="Times New Roman,serif" font-size="14.00">Super Mario Bros.</text>
</g>
<!-- smb2usa -->
<g id="node3" class="node"><title>smb2usa</title>
<ellipse fill="none" stroke="black" cx="892" cy="-487" rx="111.186" ry="18"/>
<text text-anchor="middle" x="892" y="-483.3" font-family="Times New Roman,serif" font-size="14.00">Super Mario Bros. 2 (USA)</text>
</g>
<!-- smb&#45;&gt;smb2usa -->
<g id="edge9" class="edge"><title>smb&#45;&gt;smb2usa</title>
<path fill="none" stroke="black" d="M1112.98,-545.079C1069.43,-533.831 1005.97,-517.439 958.219,-505.105"/>
<polygon fill="black" stroke="black" points="958.838,-501.65 948.281,-502.537 957.087,-508.427 958.838,-501.65"/>
</g>
<!-- smb2 -->
<g id="node4" class="node"><title>smb2</title>
<ellipse fill="none" stroke="black" cx="1163" cy="-487" rx="141.531" ry="18"/>
<text text-anchor="middle" x="1163" y="-483.3" font-family="Times New Roman,serif" font-size="14.00">Super Mario Bros.: The Lost Levels</text>
</g>
<!-- smb&#45;&gt;smb2 -->
<g id="edge5" class="edge"><title>smb&#45;&gt;smb2</title>
<path fill="none" stroke="black" d="M1163,-540.697C1163,-532.983 1163,-523.712 1163,-515.112"/>
<polygon fill="black" stroke="black" points="1166.5,-515.104 1163,-505.104 1159.5,-515.104 1166.5,-515.104"/>
</g>
<!-- sml -->
<g id="node7" class="node"><title>sml</title>
<ellipse fill="none" stroke="black" cx="1244" cy="-415" rx="77.0154" ry="18"/>
<text text-anchor="middle" x="1244" y="-411.3" font-family="Times New Roman,serif" font-size="14.00">Super Mario Land</text>
</g>
<!-- smb&#45;&gt;sml -->
<g id="edge7" class="edge"><title>smb&#45;&gt;sml</title>
<path fill="none" stroke="black" d="M1233.47,-550.898C1263.08,-544.028 1294.82,-530.707 1313,-505 1322.24,-491.937 1320.07,-483.352 1313,-469 1306.66,-456.135 1295.53,-445.522 1284.04,-437.26"/>
<polygon fill="black" stroke="black" points="1285.92,-434.312 1275.67,-431.661 1282.03,-440.13 1285.92,-434.312"/>
</g>
<!-- smb3 -->
<g id="node5" class="node"><title>smb3</title>
<ellipse fill="none" stroke="black" cx="998" cy="-415" rx="85.2138" ry="18"/>
<text text-anchor="middle" x="998" y="-411.3" font-family="Times New Roman,serif" font-size="14.00">Super Mario Bros. 3</text>
</g>
<!-- smb2&#45;&gt;smb3 -->
<g id="edge11" class="edge"><title>smb2&#45;&gt;smb3</title>
<path fill="none" stroke="black" d="M1124.31,-469.588C1100.16,-459.34 1068.94,-446.097 1043.59,-435.34"/>
<polygon fill="black" stroke="black" points="1044.76,-432.034 1034.18,-431.35 1042.02,-438.478 1044.76,-432.034"/>
</g>
<!-- smw -->
<g id="node6" class="node"><title>smw</title>
<ellipse fill="none" stroke="black" cx="958" cy="-343" rx="81.3398" ry="18"/>
<text text-anchor="middle" x="958" y="-339.3" font-family="Times New Roman,serif" font-size="14.00">Super Mario World</text>
</g>
<!-- smb3&#45;&gt;smw -->
<g id="edge13" class="edge"><title>smb3&#45;&gt;smw</title>
<path fill="none" stroke="black" d="M988.317,-397.055C983.718,-389.007 978.117,-379.205 972.986,-370.226"/>
<polygon fill="black" stroke="black" points="975.872,-368.221 967.872,-361.275 969.794,-371.694 975.872,-368.221"/>
</g>
<!-- sml2 -->
<g id="node8" class="node"><title>sml2</title>
<ellipse fill="none" stroke="black" cx="1176" cy="-268" rx="145.38" ry="18"/>
<text text-anchor="middle" x="1176" y="-264.3" font-family="Times New Roman,serif" font-size="14.00">Super Mario Land 2: 6 Golden Coins</text>
</g>
<!-- smw&#45;&gt;sml2 -->
<g id="edge17" class="edge"><title>smw&#45;&gt;sml2</title>
<path fill="none" stroke="black" d="M1000.81,-327.665C1034.39,-316.42 1081.46,-300.659 1118.35,-288.305"/>
<polygon fill="black" stroke="black" points="1119.61,-291.575 1127.98,-285.08 1117.39,-284.937 1119.61,-291.575"/>
</g>
<!-- nsmb -->
<g id="node9" class="node"><title>nsmb</title>
<ellipse fill="none" stroke="black" cx="904" cy="-268" rx="97.237" ry="18"/>
<text text-anchor="middle" x="904" y="-264.3" font-family="Times New Roman,serif" font-size="14.00">New Super Mario Bros.</text>
</g>
<!-- smw&#45;&gt;nsmb -->
<g id="edge31" class="edge"><title>smw&#45;&gt;nsmb</title>
<path fill="none" stroke="black" d="M945.476,-325.069C938.709,-315.921 930.22,-304.445 922.687,-294.262"/>
<polygon fill="black" stroke="black" points="925.404,-292.05 916.644,-286.092 919.777,-296.213 925.404,-292.05"/>
</g>
<!-- sm64 -->
<g id="node15" class="node"><title>sm64</title>
<ellipse fill="none" stroke="black" cx="688" cy="-115" rx="67.3907" ry="18"/>
<text text-anchor="middle" x="688" y="-111.3" font-family="Times New Roman,serif" font-size="14.00">Super Mario 64</text>
</g>
<!-- smw&#45;&gt;sm64 -->
<g id="edge19" class="edge"><title>smw&#45;&gt;sm64</title>
<path fill="none" stroke="black" d="M881.766,-336.494C847.521,-332.747 811.745,-326.658 798,-317 737.284,-274.336 706.645,-187.12 694.49,-142.936"/>
<polygon fill="black" stroke="black" points="697.852,-141.961 691.916,-133.185 691.084,-143.747 697.852,-141.961"/>
</g>
<!-- sml&#45;&gt;sml2 -->
<g id="edge15" class="edge"><title>sml&#45;&gt;sml2</title>
<path fill="none" stroke="black" d="M1236.07,-397.083C1224.36,-372.115 1202.34,-325.166 1188.46,-295.573"/>
<polygon fill="black" stroke="black" points="1191.51,-293.827 1184.09,-286.259 1185.17,-296.799 1191.51,-293.827"/>
</g>
<!-- nsmbwii -->
<g id="node10" class="node"><title>nsmbwii</title>
<ellipse fill="none" stroke="black" cx="899" cy="-196" rx="112.16" ry="18"/>
<text text-anchor="middle" x="899" y="-192.3" font-family="Times New Roman,serif" font-size="14.00">New Super Mario Bros. Wii</text>
</g>
<!-- nsmb&#45;&gt;nsmbwii -->
<g id="edge33" class="edge"><title>nsmb&#45;&gt;nsmbwii</title>
<path fill="none" stroke="black" d="M902.764,-249.697C902.213,-241.983 901.551,-232.712 900.937,-224.112"/>
<polygon fill="black" stroke="black" points="904.425,-223.83 900.222,-214.104 897.443,-224.328 904.425,-223.83"/>
</g>
<!-- nsmb2 -->
<g id="node11" class="node"><title>nsmb2</title>
<ellipse fill="none" stroke="black" cx="1134" cy="-196" rx="104.461" ry="18"/>
<text text-anchor="middle" x="1134" y="-192.3" font-family="Times New Roman,serif" font-size="14.00">New Super Mario Bros. 2</text>
</g>
<!-- nsmb&#45;&gt;nsmb2 -->
<g id="edge35" class="edge"><title>nsmb&#45;&gt;nsmb2</title>
<path fill="none" stroke="black" d="M952.216,-252.326C988.008,-241.432 1037.01,-226.519 1075.12,-214.921"/>
<polygon fill="black" stroke="black" points="1076.51,-218.156 1085.06,-211.896 1074.47,-211.459 1076.51,-218.156"/>
</g>
<!-- sm3dl -->
<g id="node22" class="node"><title>sm3dl</title>
<ellipse fill="none" stroke="black" cx="306" cy="-196" rx="90.0136" ry="18"/>
<text text-anchor="middle" x="306" y="-192.3" font-family="Times New Roman,serif" font-size="14.00">Super Mario 3D Land</text>
</g>
<!-- nsmb&#45;&gt;sm3dl -->
<g id="edge43" class="edge"><title>nsmb&#45;&gt;sm3dl</title>
<path fill="none" stroke="black" d="M824.281,-257.668C711.925,-244.516 507.813,-220.624 392.098,-207.078"/>
<polygon fill="black" stroke="black" points="392.207,-203.567 381.867,-205.881 391.393,-210.52 392.207,-203.567"/>
</g>
<!-- nsmbu -->
<g id="node12" class="node"><title>nsmbu</title>
<ellipse fill="none" stroke="black" cx="899" cy="-115" rx="115.448" ry="26.7407"/>
<text text-anchor="middle" x="899" y="-118.8" font-family="Times New Roman,serif" font-size="14.00">New Super Mario Bros. U</text>
<text text-anchor="middle" x="899" y="-103.8" font-family="Times New Roman,serif" font-size="14.00">+ New Super Luigi U</text>
</g>
<!-- nsmbwii&#45;&gt;nsmbu -->
<g id="edge37" class="edge"><title>nsmbwii&#45;&gt;nsmbu</title>
<path fill="none" stroke="black" d="M899,-177.858C899,-170.356 899,-161.25 899,-152.358"/>
<polygon fill="black" stroke="black" points="902.5,-152.126 899,-142.126 895.5,-152.126 902.5,-152.126"/>
</g>
<!-- wonder -->
<g id="node13" class="node"><title>wonder</title>
<ellipse fill="none" stroke="black" cx="899" cy="-34" rx="110.235" ry="18"/>
<text text-anchor="middle" x="899" y="-30.3" font-family="Times New Roman,serif" font-size="14.00">Super Mario Bros. Wonder</text>
</g>
<!-- nsmbu&#45;&gt;wonder -->
<g id="edge39" class="edge"><title>nsmbu&#45;&gt;wonder</title>
<path fill="none" stroke="black" d="M899,-87.6941C899,-79.5798 899,-70.6261 899,-62.4375"/>
<polygon fill="black" stroke="black" points="902.5,-62.2484 899,-52.2484 895.5,-62.2484 902.5,-62.2484"/>
</g>
<!-- sunshine -->
<g id="node16" class="node"><title>sunshine</title>
<ellipse fill="none" stroke="black" cx="663" cy="-34" rx="90.4879" ry="18"/>
<text text-anchor="middle" x="663" y="-30.3" font-family="Times New Roman,serif" font-size="14.00">Super Mario Sunshine</text>
</g>
<!-- sm64&#45;&gt;sunshine -->
<g id="edge21" class="edge"><title>sm64&#45;&gt;sunshine</title>
<path fill="none" stroke="black" d="M682.575,-96.8582C679.332,-86.6094 675.141,-73.3664 671.47,-61.7647"/>
<polygon fill="black" stroke="black" points="674.768,-60.5864 668.414,-52.1084 668.094,-62.6984 674.768,-60.5864"/>
</g>
<!-- galaxy -->
<g id="node20" class="node"><title>galaxy</title>
<ellipse fill="none" stroke="black" cx="107" cy="-268" rx="83.2649" ry="18"/>
<text text-anchor="middle" x="107" y="-264.3" font-family="Times New Roman,serif" font-size="14.00">Super Mario Galaxy</text>
</g>
<!-- sunshine&#45;&gt;galaxy -->
<g id="edge23" class="edge"><title>sunshine&#45;&gt;galaxy</title>
<path fill="none" stroke="black" d="M597.434,-46.4742C585.022,-48.461 572.128,-50.3994 560,-52 399.269,-73.2117 353.225,-44.6606 197,-88 106.961,-112.978 56.9665,-99.043 7,-178 -1.55599,-191.52 -1.24975,-200.291 7,-214 16.5311,-229.839 32.5621,-241.194 49.0285,-249.222"/>
<polygon fill="black" stroke="black" points="47.6276,-252.429 58.1827,-253.347 50.5035,-246.047 47.6276,-252.429"/>
</g>
<!-- odd -->
<g id="node17" class="node"><title>odd</title>
<ellipse fill="none" stroke="black" cx="511" cy="-115" rx="90.4879" ry="18"/>
<text text-anchor="middle" x="511" y="-111.3" font-family="Times New Roman,serif" font-size="14.00">Super Mario Odyssey</text>
</g>
<!-- fury -->
<g id="node18" class="node"><title>fury</title>
<ellipse fill="none" stroke="black" cx="488" cy="-34" rx="63.5411" ry="18"/>
<text text-anchor="middle" x="488" y="-30.3" font-family="Times New Roman,serif" font-size="14.00">Bowser&#39;s Fury</text>
</g>
<!-- odd&#45;&gt;fury -->
<g id="edge29" class="edge"><title>odd&#45;&gt;fury</title>
<path fill="none" stroke="black" d="M506.009,-96.8582C503.026,-86.6094 499.17,-73.3664 495.792,-61.7647"/>
<polygon fill="black" stroke="black" points="499.137,-60.7313 492.981,-52.1084 492.416,-62.6881 499.137,-60.7313"/>
</g>
<!-- galaxy2 -->
<g id="node21" class="node"><title>galaxy2</title>
<ellipse fill="none" stroke="black" cx="107" cy="-196" rx="90.4879" ry="18"/>
<text text-anchor="middle" x="107" y="-192.3" font-family="Times New Roman,serif" font-size="14.00">Super Mario Galaxy 2</text>
</g>
<!-- galaxy&#45;&gt;galaxy2 -->
<g id="edge25" class="edge"><title>galaxy&#45;&gt;galaxy2</title>
<path fill="none" stroke="black" d="M107,-249.697C107,-241.983 107,-232.712 107,-224.112"/>
<polygon fill="black" stroke="black" points="110.5,-224.104 107,-214.104 103.5,-224.104 110.5,-224.104"/>
</g>
<!-- galaxy&#45;&gt;sm3dl -->
<g id="edge41" class="edge"><title>galaxy&#45;&gt;sm3dl</title>
<path fill="none" stroke="black" d="M148.717,-252.326C179.421,-241.525 221.36,-226.773 254.21,-215.218"/>
<polygon fill="black" stroke="black" points="255.381,-218.516 263.653,-211.896 253.058,-211.913 255.381,-218.516"/>
</g>
<!-- galaxy2&#45;&gt;odd -->
<g id="edge27" class="edge"><title>galaxy2&#45;&gt;odd</title>
<path fill="none" stroke="black" d="M170.88,-183.174C182.852,-181.232 195.285,-179.4 207,-178 295.917,-167.372 321.297,-186.399 408,-164 430.981,-158.063 455.111,-147.104 474.234,-137.156"/>
<polygon fill="black" stroke="black" points="476.015,-140.173 483.193,-132.379 472.722,-133.996 476.015,-140.173"/>
</g>
<!-- sm3dw -->
<g id="node23" class="node"><title>sm3dw</title>
<ellipse fill="none" stroke="black" cx="301" cy="-115" rx="94.338" ry="18"/>
<text text-anchor="middle" x="301" y="-111.3" font-family="Times New Roman,serif" font-size="14.00">Super Mario 3D World</text>
</g>
<!-- sm3dl&#45;&gt;sm3dw -->
<g id="edge45" class="edge"><title>sm3dl&#45;&gt;sm3dw</title>
<path fill="none" stroke="black" d="M304.915,-177.858C304.273,-167.713 303.445,-154.634 302.716,-143.117"/>
<polygon fill="black" stroke="black" points="306.208,-142.867 302.083,-133.108 299.222,-143.31 306.208,-142.867"/>
</g>
<!-- sm3dw&#45;&gt;fury -->
<g id="edge47" class="edge"><title>sm3dw&#45;&gt;fury</title>
<path fill="none" stroke="black" d="M337.945,-98.3921C368.752,-85.3774 412.68,-66.8196 445.05,-53.1446"/>
<polygon fill="black" stroke="black" points="446.425,-56.3634 454.274,-49.2477 443.701,-49.9152 446.425,-56.3634"/>
</g>
</g>
</svg>
